<svg xmlns="http://www.w3.org/2000/svg" viewBox="0 0 400 240" width="400" height="240" role="img" aria-label="Preview">
  <rect x="0" y="0" width="400" height="240" rx="0" fill="#F7F7F5"/>
  <rect x="20" y="20" width="96" height="10" rx="0" fill="#14201B"/>
  <rect x="20" y="36" width="60" height="7" rx="0" fill="#929B96"/>
  <rect x="304" y="20" width="76" height="22" rx="0" fill="#C8E64C"/>
  <rect x="20" y="58" width="82.5" height="46" rx="0" fill="#FFFFFF"/>
  <rect x="30" y="68" width="41.25" height="6" rx="3" fill="#929B96"/>
  <rect x="30" y="80" width="51.15" height="12" rx="3" fill="#14201B"/>
  <rect x="112.5" y="58" width="82.5" height="46" rx="0" fill="#FFFFFF"/>
  <rect x="122.5" y="68" width="41.25" height="6" rx="3" fill="#929B96"/>
  <rect x="122.5" y="80" width="51.15" height="12" rx="3" fill="#14201B"/>
  <rect x="205" y="58" width="82.5" height="46" rx="0" fill="#FFFFFF"/>
  <rect x="215" y="68" width="41.25" height="6" rx="3" fill="#929B96"/>
  <rect x="215" y="80" width="51.15" height="12" rx="3" fill="#14201B"/>
  <rect x="297.5" y="58" width="82.5" height="46" rx="0" fill="#1D4237"/>
  <rect x="307.5" y="68" width="41.25" height="6" rx="3" fill="#929B96"/>
  <rect x="307.5" y="80" width="51.15" height="12" rx="3" fill="#F7F7F5"/>
  <rect x="20" y="116" width="232" height="100" rx="0" fill="#FFFFFF"/>
  <rect x="34" y="162" width="20" height="34" rx="0" fill="#1D4237"/>
  <rect x="64" y="148" width="20" height="48" rx="0" fill="#1D4237"/>
  <rect x="94" y="168" width="20" height="28" rx="0" fill="#1D4237"/>
  <rect x="124" y="136" width="20" height="60" rx="0" fill="#1D4237"/>
  <rect x="154" y="156" width="20" height="40" rx="0" fill="#1D4237"/>
  <rect x="184" y="142" width="20" height="54" rx="0" fill="#1D4237"/>
  <rect x="214" y="126" width="20" height="70" rx="0" fill="#1D4237"/>
  <rect x="264" y="116" width="116" height="100" rx="0" fill="#FFFFFF"/>
  <rect x="276" y="132" width="48" height="7" rx="3" fill="#929B96"/>
  <rect x="276.5" y="145.5" width="39" height="10" rx="0" fill="none" stroke="#E3A33A" stroke-width="1"/>
  <rect x="276" y="164" width="92" height="1" rx="0" fill="#E6E9E7"/>
  <rect x="276" y="160" width="48" height="7" rx="3" fill="#929B96"/>
  <rect x="276.5" y="173.5" width="39" height="10" rx="0" fill="none" stroke="#E15241" stroke-width="1"/>
  <rect x="276" y="192" width="92" height="1" rx="0" fill="#E6E9E7"/>
  <rect x="276" y="188" width="48" height="7" rx="3" fill="#929B96"/>
</svg>
